<?xml version="1.0" encoding="iso-8859-1"?>
<!-- Generator: Adobe Illustrator 17.1.0, SVG Export Plug-In . SVG Version: 6.00 Build 0)  -->
<!DOCTYPE svg PUBLIC "-//W3C//DTD SVG 1.1//EN" "http://www.w3.org/Graphics/SVG/1.1/DTD/svg11.dtd">
<svg xmlns="http://www.w3.org/2000/svg" xmlns:xlink="http://www.w3.org/1999/xlink" version="1.1" id="Capa_1" x="0px" y="0px" viewBox="0 0 389.239 389.239" style="enable-background:new 0 0 389.239 389.239;" xml:space="preserve" width="512px" height="512px">
<g>
	<path d="M322.241,373.249l-44.209-83.604c-2.057-3.891-0.327-5.928,3.845-4.527l33.384,11.202c4.171,1.4,6.205-0.78,4.521-4.845   l-28.826-69.53c-1.685-4.064,0.35-6.245,4.521-4.846L311,222.308c4.171,1.399,6.363-0.843,4.871-4.981l-39.844-110.529   c-1.492-4.139-5.729-5.562-9.416-3.16l-98.453,64.125c-3.686,2.4-3.291,5.511,0.881,6.91l15.524,5.209   c4.172,1.4,4.479,4.366,0.684,6.592l-64.934,38.068c-3.796,2.226-3.488,5.191,0.683,6.592l33.384,11.202   c4.172,1.4,4.322,4.068,0.336,5.931L69.025,288.28c-3.986,1.861-3.836,4.529,0.336,5.93l104.247,34.98c0,0,3.021,1.395,1.162,3.862   c-1.781,2.367-7.901,8.831-7.901,8.831c-2.338,2.615-3.909,6.729-3.909,10.234v26.621c0,5.789,4.711,10.5,10.5,10.5h35.187   c5.79,0,10.5-4.711,10.5-10.5v-23.813c0-0.457,0.185-0.629,0.298-0.836c0,0,3.779-4.668,5.055-6.21   c1.088-1.317,2.317-0.836,2.317-0.836l91.581,30.73C322.568,379.175,324.298,377.138,322.241,373.249z M209.129,343l-1.407,1.728   c-2.139,2.631-3.576,6.672-3.576,10.061V371.5c0,0,0.316,2.738-2.601,2.738c-5.125,0-14.725,0-20.5,0   c-3.5,0-3.086-2.738-3.086-2.738v-18.083c0-1.417,1.102-2.604,1.182-2.756l11.949-13.353c0,0,1.122-1.892,3.989-0.913   c3.809,1.299,9.967,3.247,13.247,4.448C210.461,341.625,209.129,343,209.129,343z M287.597,351.619l-177.893-59.693   c-4.172-1.4-4.322-4.068-0.336-5.931l85.691-40.014c3.986-1.862,3.836-4.53-0.336-5.93l-37.702-12.65   c-4.171-1.4-4.479-4.366-0.683-6.592l64.934-38.068c3.795-2.226,3.488-5.191-0.684-6.592l-17.378-5.831   c-4.172-1.4-4.568-4.511-0.881-6.911l56.594-36.861c3.688-2.4,7.925-0.979,9.417,3.16l22.903,63.537   c1.492,4.139-0.7,6.381-4.871,4.98l-17.379-5.83c-4.172-1.4-6.206,0.78-4.52,4.845l28.826,69.528   c1.685,4.064-0.35,6.245-4.52,4.846l-37.702-12.65c-4.171-1.4-5.901,0.637-3.845,4.526l44.209,83.604   C293.498,350.982,291.768,353.019,287.597,351.619z" fill="#03a9f4"/>
	<path d="M98.492,87.688c0,0,35.948-6.434,47.501-10.179c6.578-2.133,4.286,4.137,4.286,4.137l-30.875,60.478   c-1.884,3.689-0.42,8.207,3.269,10.09c1.092,0.558,2.257,0.822,3.404,0.822c2.729-0.001,5.36-1.495,6.686-4.092l39.127-76.641   c1.818-3.563,1.595-7.394-0.598-10.247c-2.191-2.853-5.831-4.054-9.747-3.22c0,0-32.169,6.626-42.814,9.174   c-8.493,2.033-6.281-3.271-6.281-3.271l34.061-53.194c2.233-3.488,1.216-8.127-2.272-10.36c-3.487-2.233-8.127-1.218-10.36,2.273   L88.852,73.779c-2.245,3.506-2.329,7.412-0.223,10.45C90.735,87.268,94.426,88.559,98.492,87.688z" fill="#03a9f4"/>
</g>
<g>
</g>
<g>
</g>
<g>
</g>
<g>
</g>
<g>
</g>
<g>
</g>
<g>
</g>
<g>
</g>
<g>
</g>
<g>
</g>
<g>
</g>
<g>
</g>
<g>
</g>
<g>
</g>
<g>
</g>
</svg>
